
<svg xmlns="http://www.w3.org/2000/svg" viewBox="0 0 569 296.5">
<g transform="matrix(0.113462,0.335606,-0.335606,0.113462,368.093,46.2295)">
	<path fill="#404040" d="M122.6-556.7c12.9,2.8,27.9,9.8,30.6,23.3c1.6,8.1,14,16.6,19.4,19.3l7.5,3.7l-0.1,8.4c-0.2,10.6-0.4,24.8-0.5,34.9
		c2.4,0.7,4.9,2,7,4c1.4,1.3,2.5,2.8,3.4,4.5l1,2.7l0.8,4.4c0,0.3,0,0.6,0,0.8l-0.1,6.5l-2.4,130.1c-0.2,6-2.9,13-13.8,15.7
		c-1.6,7.1-5.3,13.6-8.6,19.5c-2.5,4.5-6,10.7-5.9,13.3c0.5,12.1,10.5,477.9,12.2,560.8c58.4,7,111.7,34.6,147.6,76.7
		c28.3,33.2,42.1,71.2,38.9,107.1c-4.1,45.7-15.9,79.5-25.3,106.6c-6.3,18.2-11.4,32.6-12.1,44.9c-1.2,18.8,16.6,47,37.2,79.7
		c33.2,52.6,74.5,118.1,70.3,195.5c-1.1,19.6-4.5,43-12.6,67.2c-10.3,30.4-28.1,62.1-58.3,89.4c-55.7,50.4-139.6,73.2-249.4,67.6
		l-13.3-0.7l63.6-1.9c92.7-11.3,233.1-30.6,243.5-223.2c3.7-69-35.1-130.5-66.3-179.9c-24-38.1-43-68.1-41.2-95.5
		c1-16,6.8-32.7,13.6-52c9-25.7,20.1-57.8,23.9-100.2c2.5-28.3-9.4-60.2-32.7-87.5c-33.8-39.6-85.3-64.6-141.3-68.6l-12.1-0.9
		l-0.3-12.1c-0.1-5.6-12-559.4-12.5-572.2c-0.4-10.1,4.7-19.3,9.3-27.3c2.5-4.5,6-10.6,6-13.6c0-0.3,0-0.7,0-1.1l0.2,0
		c0-0.7,0.1-1.7,0.1-3.2c0.1-3.5,1.6-11.4,12.8-13.5l2.1-114.7l0,0l0.1-3.3c-2.4-0.2-5.1-1.1-7.7-3.4l-4.3-3.9l-0.1-5.8
		c0-3.2,0.3-27.2,0.5-40.1c-8.7-5.7-22.1-16.6-25.8-32c-2.7-2.1-11.2-5.1-18.2-5.1l0,0l-3.7,0c-6.9,0-15.5,2.9-18.2,5.1
		c-3.7,15.4-17.1,26.3-25.8,32c0.2,12.9,0.5,36.9,0.5,40.1l0,5.8l-4.3,3.9c-2.6,2.3-5.3,3.2-7.7,3.4c0.1,2,0.1,4.1,0.2,6.1
		c0.1,4.7,0.2,9,0.3,10.6l1.7,101.3c11.2,2.1,12.7,10,12.8,13.5c0,1.6,0.1,2.6,0.1,3.2l0.3,0c0,0.4,0,0.7,0,1.1
		c0.1,3,3.5,9.1,6,13.6c4.5,8.1,9.6,17.2,9.3,27.3c-0.5,12.8-12.4,566.6-12.5,572.2l-0.3,12.1l-12.1,0.9
		c-56,3.9-107.5,29-141.3,68.6c-23.3,27.3-32.7,38.8-48.4,75.5l-9.5,27.6l-1.2-13.2c-3.2-35.8,10.6-73.9,38.9-107.1
		c35.9-42.1,89.2-69.7,147.6-76.7c1.8-82.9,11.8-548.7,12.2-560.8c0.1-2.7-3.4-8.8-5.9-13.3c-3.3-5.9-7-12.4-8.6-19.5
		c-10.8-2.8-13.6-9.7-13.8-15.5L24-424.2c0-1.5-0.2-5.7-0.3-10.4c-0.2-6.2-0.4-13.2-0.4-16.2c-0.1-4.8,1.7-9.2,5.1-12.4
		c2.2-2,4.6-3.2,7-4c-0.1-10.1-0.3-24.3-0.5-34.9l-0.1-8.4l7.5-3.7c5.6-2.8,17.8-11.2,19.4-19.3c3-14.8,20.7-21.8,34.3-24">
	</path>
</g>
<path fill="#404040" d="M186.2,102.5c-4.1,3.8-5,4.4-10.2,4.4H95.8c-5.5,0-7.5,0.1-9.7-4.4h-5.2c-1.8,11.1-5.2,23.6-8.9,36.5l7.5,0.3
	c3.3-7.1,6.2-12.1,9.3-16c4.1-5.6,7.7-8,23.2-8h9.9l-8,41.7c-3.8,5.4-9.9,7.1-16.7,7.1c-23.6,0-38-17.6-38-50.5
	c0-40.1,24.2-71.5,57-71.5c17.2,0,30.1,5.8,29.8,31.5l7.4-0.7c1.7-14.4,3.8-27.6,5.4-34.3c-7.7-1.5-22-5-39.3-5
	c-50.2,0-86.9,32.5-86.9,79.9c0,37.4,25.2,58.9,63.2,58.9c6,0,11-1.4,15.6-3.4l-8.7,45c-2.9,15.2-4.5,17.6-21.9,18.9l-1.6,6.7H142
	l1.5-6.7c-18.9-1.3-20.1-3.4-17.2-18.9l18.8-98.7h12.1c15,0,18.1,3,19.4,10.8c1,3.7,1.2,9.8,1.2,13.4l7.4-0.4
	c1.8-11.8,4.3-27.9,6.7-36.7H186.2z">
</path>
</svg>
